<svg xmlns="http://www.w3.org/2000/svg" style="display: none;">
  
    <symbol id="icon-displays" viewBox="0 0 512 512">
      <path d="m142 393l91 0 0-60-91 0z m46-72l-177 0c-1 0-2-1-2-2l0-194c0-1 1-3 2-3l353 0c2 0 3 2 3 3l0 12 8 0 0-15c0-4-3-8-8-8l-358 0c-5 0-9 4-9 8l0 199c0 5 4 9 9 9l182 0c-2-2-3-5-3-9z m315-179l-301 0c-5 0-9 4-9 9l0 170c0 5 4 9 9 9l301 0c5 0 9-4 9-9l0-170c0-5-4-9-9-9z m0 177c0 1-1 2-2 2l-296 0c-2 0-3-1-3-2l0-165c0-2 1-3 3-3l296 0c1 0 2 1 2 3z m-140 15c0 6-4 10-10 10l-1 0c-5 0-10-4-10-10l0-1-29 0 0 60 80 0 0-60-30 0z"/>
    </symbol>
  
    <symbol id="icon-hmc" viewBox="0 0 512 512">
      <path d="m512 153l0 194c0 5-4 9-9 9l-185 0 0-38c0 0 185 0 185 0l0-162c0-2-2-3-3-3l-288 0c-1 0-3 1-3 3l0 69-9 0 0-72c0-5 4-9 9-9l294 0c5 0 9 4 9 9z m-194 228l25 0 0 14c0 4-2 8-5 11l55 0 0-47-75 0z m-6 6l0-143c0-7-5-13-12-13l-213 0c-6 0-12 6-12 13l0 112 6 0 0-112c0-2 2-4 3-4l94 0 0 1c0 3 3 6 6 6l16 0c3 0 6-3 6-6l0-1 94 0c1 0 3 2 3 4l0 143-184 0 0 9c0 3-1 5-3 7l177 0 2 3 16 0 1-3 17 0c4 0 8-4 8-8l0-8z m-312-25l112 0 0 34c0 2-1 4-3 4l-3 0-6 6-88 0-6-6-2 0c-2 0-4-2-4-4z m81 31c0 2 2 3 4 3 2 0 4-1 4-3 0-3-2-4-4-4-2 0-4 1-4 4z"/>
    </symbol>
  
    <symbol id="icon-imac" viewBox="0 0 512 512">
      <path d="m201 475l110 0 0-68-110 0z m270-384l-430 0c-7 0-14 7-14 14l0 284c0 7 7 13 14 13l430 0c7 0 14-6 14-13l0-284c0-7-7-14-14-14z m0 256l-430 0 0-237c0-3 2-5 5-5l420 0c3 0 5 2 5 5z"/>
    </symbol>
  
    <symbol id="icon-mac-accessories" viewBox="0 0 512 512">
      <path d="m256 157c94 0 156 67 156 168 0 47-13 98-36 138-2 5-7 6-12 5-6 10-17 14-31 10-16-5-23-19-18-35l23-77c5-16 18-23 35-18 7 2 13 6 17 12 1-12 2-23 2-35 0-88-54-148-136-148-82 0-136 60-136 148 0 12 1 23 2 35 4-6 9-10 17-12 17-5 30 2 35 18l23 77c5 16-2 30-19 35-13 4-24 0-31-10-4 1-9 0-11-5-23-40-36-91-36-138 0-101 62-168 156-168z"/>
    </symbol>
  
    <symbol id="icon-mac-compare" viewBox="0 0 512 512">
      <path d="m180 123l-85 0c-29 0-52 24-52 52l0 247c0 29 23 52 52 52l85 0c29 0 52-23 52-52l0-247c0-28-23-52-52-52z m33 299c0 18-15 33-33 33l-85 0c-19 0-33-15-33-33l0-247c0-18 14-33 33-33l85 0c18 0 33 15 33 33z m247-76l9 0 0 57-9 0z m-114-223l57 0 0 10-57 0z m114 147l9 0 0 57-9 0z m-114 195l57 0 0 9-57 0z m-57-138l-9 0 0-57 9 0z m0-76l-9 0 0-57 9 0z m0 152l-9 0 0-57 9 0z m133-270l0-9c27 2 47 24 47 51l-9 0c0-21-17-39-38-42z m38 289l9 0c0 27-20 49-47 52l0-10c21-2 38-20 38-42z m-133-298l0 9c-21 3-38 21-38 42l-9 0c0-27 20-49 47-51z m0 340l0 10c-27-3-47-25-47-52l9 0c0 22 17 40 38 42z m133-270l9 0 0 57-9 0z"/>
    </symbol>
  
    <symbol id="icon-mac-mini" viewBox="0 0 512 512">
      <path d="m174 411l0 50c0 3 2 5 5 5l4 0 9 9 128 0 9-9 4 0c3 0 5-2 5-5l0-50z m143 51c-4 0-6-3-6-6 0-3 2-6 6-6 3 0 5 3 5 6 0 3-2 6-5 6z"/>
    </symbol>
  
    <symbol id="icon-mac-os" viewBox="0 0 512 512">
      <path d="m245 347c0 28-15 45-37 45-23 0-37-18-37-45 0-27 14-44 37-44 22 0 37 17 37 44z m31-95l-10 0c-5 1-8 3-8 6 0 4 3 6 8 6 6 0 10-4 10-9z m141 61c0 90-71 161-161 161-90 0-161-71-161-161 0-90 71-161 161-161 90 0 161 71 161 161z m-124-63c0 13 8 21 19 21 10 0 17-6 18-14l-8 0c-1 5-5 7-10 7-6 0-10-5-10-14 0-9 4-14 10-14 6 0 9 3 10 7l8 0c-1-8-8-14-18-14-11 0-19 8-19 21z m-108-20l0 40 8 0 0-25c0-5 4-9 8-9 5 0 8 3 8 7l0 27 8 0 0-25c0-5 3-9 9-9 5 0 7 3 7 8l0 26 8 0 0-28c0-8-4-13-13-13-5 0-10 3-12 7l0 0c-2-4-6-7-12-7-5 0-9 3-11 7l0 0 0-6z m74 117c0-35-20-57-51-57-31 0-51 22-51 57 0 35 20 57 51 57 31 0 51-22 51-57z m5-76c5 0 9-3 12-7l0 0 0 6 8 0 0-27c0-9-6-14-16-14-9 0-15 5-16 11l8 0c0-3 3-4 8-4 5 0 8 2 8 7l0 3-11 1c-9 0-15 5-15 12 0 7 6 12 14 12z m87 100c0-16-9-25-32-30l-13-2c-15-4-21-10-21-18 0-11 11-18 25-18 14 0 24 7 25 19l14 0c-1-18-17-31-39-31-23 0-39 12-39 30 0 16 10 26 32 31l12 3c15 3 22 9 22 18 0 11-11 19-26 19-16 0-27-7-29-19l-13 0c1 19 17 31 41 31 25 0 41-13 41-33z"/>
    </symbol>
  
    <symbol id="icon-mac-pro" viewBox="0 0 512 512">
      <path d="m448 448l0-366-18 0 0-36c0-5-4-9-9-9-5 0-10 4-10 9l0 36-310 0 0-36c0-5-5-9-10-9-5 0-9 4-9 9l0 36-18 0 0 366 18 0 0 13c0 3-2 5-4 5l-14 0 0 9 55 0 0-9-14 0c-2 0-4-2-4-5l0-13 310 0 0 13c0 3-2 5-4 5l-14 0 0 9 55 0 0-9-14 0c-2 0-4-2-4-5l0-13z m-191-234c1-3 3-5 4-6 2-2 4-4 6-5 2-1 4-2 7-2 0 0 0 1 0 1l0 1c0 2-1 5-1 7-1 2-3 4-4 6-2 2-4 4-6 5-2 1-4 1-6 1-1 0-1 0-1 0 0 0 0-1 0-2 0-2 0-4 1-6z m33 61c-1 2-2 4-3 6-2 2-3 3-4 5-1 1-2 2-3 3-1 1-2 2-3 3-2 0-3 0-4 0-1 0-2 0-4 0-1 0-2-1-4-1-1-1-2-1-4-2-1 0-2 0-3 0-1 0-3 0-4 0-2 1-3 1-4 2-2 0-3 1-4 1-1 0-2 1-3 1-1 0-2-1-3-1-1 0-2-1-4-2-1-1-2-2-3-3-1-2-3-4-4-6-2-2-3-4-4-7-1-2-2-5-3-8-1-2-1-5-2-8 0-2-1-5-1-7 0-4 1-8 2-11 1-4 3-6 5-9 2-2 4-4 7-6 3-1 6-2 9-2 2 0 5 1 8 2 3 2 5 2 7 2 0 0 1 0 2 0 1-1 3-1 5-2 2-1 4-1 5-1 1-1 2-1 4-1 3 0 6 1 10 3 3 1 5 4 7 6-3 2-6 5-7 8-2 2-2 6-2 10 0 4 1 7 3 11 2 3 5 6 9 7-1 3-2 5-3 7z"/>
    </symbol>
  
    <symbol id="icon-mac-shop" viewBox="0 0 512 512">
      <path d="m116 319l261 0c2 0 5-2 5-5l0-150c0-2-3-5-5-5l-261 0c-3 0-5 3-5 5l0 150c0 3 2 5 5 5z m2-152l256 0 0 145-256 0z m-110 99l0-3c0-4 3-8 8-8l90 0 0-9-94 0c-7 0-12 6-12 12l0 16c4 0 8-4 8-8z m247 56c0 5-3 9-8 9l-1 0c-5 0-9-4-9-9l0-1-24 0 0 51 67 0 0-51-25 0z m238 40l0-106c0-5-5-10-10-10l-97 0 0 8 9 0 0 0c0 2 2 4 5 4l12 0c2 0 5-2 5-4l0 0 66 0c1 0 3 1 3 2l0 106-160 0 0-38-7 0 0 38-20 0 0 3c0 2 3 5 5 5l10 0 1 2 17 0 1-2 145 0 2 2 16 0 2-2 9 0c3 0 5-3 5-5l0-3z m-387-48l0-57-90 0c-3 0-6 3-6 6l0 3c0 6-4 10-10 11l0 83c0 7 5 12 12 12l150 0c7 0 12-5 12-12l0-36-58 0c-5 0-10-5-10-10z m-19-13c1-1 1-1 1-2 1 0 1 0 2-1 0 0 1 0 1 0 0 0 0 0 0 0l0 0c0 1 0 1 0 2 0 0-1 1-1 1 0 1-1 1-1 1-1 1-1 1-2 1 0 0 0 0 0 0 0 0 0 0 0-1 0 0 0-1 0-1z m8 15c0 0 0 1-1 1 0 1 0 1 0 1-1 1-1 1-1 1 0 0-1 0-1 1 0 0-1 0-1 0 0 0-1 0-1 0 0 0 0 0-1-1 0 0 0 0-1 0 0 0 0 0-1 0 0 0 0 0-1 0 0 0 0 0-1 0 0 1 0 1-1 1 0 0 0 0 0 0-1 0-1 0-1 0 0 0-1-1-1-1 0 0 0 0-1-1 0 0 0 0-1-1 0 0 0-1-1-2 0 0 0-1 0-1 0-1-1-2-1-2 0-1 0-2 0-2 0-1 0-2 1-3 0-1 0-1 1-2 0-1 1-1 1-1 1-1 2-1 3-1 0 0 1 0 2 1 0 0 1 0 1 0 0 0 0 0 1 0 0 0 0 0 1 0 0-1 1-1 1-1 0 0 1 0 1 0 1 0 2 0 2 1 1 0 2 1 2 1-1 1-1 1-2 2 0 1 0 2 0 3 0 0 0 1 1 2 0 1 1 2 2 2 0 1-1 1-1 2z"/>
    </symbol>
  
    <symbol id="icon-mac-studio" viewBox="0 0 512 512">
      <path d="m128 347l0 109c0 6 4 10 10 10l8 0 14 9 192 0 14-9 8 0c6 0 10-4 10-10l0-109z m218 110c-5 0-10-4-10-10 0-6 5-10 10-10 6 0 11 4 11 10 0 6-5 10-11 10z"/>
    </symbol>
  
    <symbol id="icon-macbook-pro" viewBox="0 0 512 512">
      <path d="m484 405l0-163c0-8-7-14-15-14l-241 0c-8 0-15 6-15 14l0 163-28 0 0 9c0 5 4 9 9 9l17 0 2 4 18 0 2-4 229 0 2 4 18 0 2-4 18 0c6 0 10-4 10-9l0-9z m-11 0l-249 0 0-163c0-2 2-4 4-4l103 0 0 1c0 3 3 6 6 6l23 0c3 0 6-3 6-6l0-1 103 0c2 0 4 2 4 4l0 163z m-295 0l-139 0 0-192c0-2 2-3 4-3l124 0 0 0c0 4 3 7 7 7l22 0c4 0 7-3 7-7l0 0 124 0c2 0 4 1 4 3l0 8 10 0 0-8c0-8-6-14-14-14l-284 0c-8 0-15 6-15 14l0 192-28 0 0 9c0 5 5 9 11 9l13 0 1 4 19 0 1-4 136 0c-2-2-3-6-3-9z"/>
    </symbol>
  
    <symbol id="icon-macbookair" viewBox="0 0 512 512">
      <path d="m484 412l0-156c0-8-7-14-15-14l-227 0c-8 0-14 6-14 14l0 156-29 0 0 4c0 2 1 4 2 5 1 1 3 2 5 2l14 0 2 4 25 0 2-4 213 0 2 4 25 0 2-4 14 0c4 0 7-3 7-7l0-4z m-11 0l-235 0 0-156c0-2 2-4 4-4l98 0c0 4 3 8 7 8l17 0c4 0 8-4 8-8l97 0c2 0 4 2 4 4z m-281 0l-146 0 0-184c0-2 2-4 4-4l119 0c0 4 3 7 7 7l25 0c4 0 7-3 7-7l119 0c2 0 4 2 4 4l0 7 10 0 0-7c0-8-6-15-14-15l-277 0c-8 0-14 7-14 15l0 184-36 0 0 4c0 4 3 7 7 7l21 0 2 4 25 0 2-4 137 0c-1-2-2-4-2-7z"/>
    </symbol>
  
</svg>
